<svg width="68" height="68" viewBox="0 0 68 68" fill="none" xmlns="http://www.w3.org/2000/svg">
<path d="M25.6666 25.0833V42.9167C25.6666 44.1945 26.25 45.1667 27.4166 45.8333C28.5833 46.5 29.7222 46.4444 30.8333 45.6667L44.6666 36.8333C45.7222 36.1667 46.25 35.2222 46.25 34C46.25 32.7778 45.7222 31.8333 44.6666 31.1667L30.8333 22.3333C29.7222 21.5556 28.5833 21.5 27.4166 22.1667C26.25 22.8333 25.6666 23.8056 25.6666 25.0833ZM34 67.3333C29.3888 67.3333 25.0555 66.4578 21 64.7067C16.9444 62.9578 13.4166 60.5833 10.4166 57.5833C7.41663 54.5833 5.04218 51.0556 3.29329 47C1.54218 42.9444 0.666626 38.6111 0.666626 34C0.666626 29.3889 1.54218 25.0556 3.29329 21C5.04218 16.9445 7.41663 13.4167 10.4166 10.4167C13.4166 7.41667 16.9444 5.04112 21 3.29C25.0555 1.54112 29.3888 0.666672 34 0.666672C38.6111 0.666672 42.9444 1.54112 47 3.29C51.0555 5.04112 54.5833 7.41667 57.5833 10.4167C60.5833 13.4167 62.9577 16.9445 64.7066 21C66.4577 25.0556 67.3333 29.3889 67.3333 34C67.3333 38.6111 66.4577 42.9444 64.7066 47C62.9577 51.0556 60.5833 54.5833 57.5833 57.5833C54.5833 60.5833 51.0555 62.9578 47 64.7067C42.9444 66.4578 38.6111 67.3333 34 67.3333Z" fill="white"/>
</svg>
